<svg width="512" height="512" viewBox="0 0 512 512" fill="none" xmlns="http://www.w3.org/2000/svg">
<style>
  path {
    fill: #1A1A18;
  }
  @media (prefers-color-scheme: dark) {
    path { fill: #FFFEFD; }
  }
</style>
<path d="M35.719 406.361C28.7161 405.8 22.8349 404.951 18.0754 403.845L19.7581 368.141C23.9566 368.974 29.4212 369.759 36.1357 370.449C42.8502 371.154 48.3147 371.506 52.5133 371.506C69.0351 371.506 80.9257 365.833 88.2171 354.504C95.4925 343.158 99.1302 326.3 99.1302 303.897L98.2808 104H136.068L136.901 317.758C137.174 344.921 130.042 366.619 115.476 382.852C100.909 399.085 80.8936 407.21 55.4298 407.21C49.2762 407.21 42.6899 406.922 35.687 406.377L35.719 406.361ZM178.919 279.538H317.087V313.127H178.919V279.538ZM253.66 104H298.177L493.459 400.48H449.358L253.66 104Z" fill="#1A1A18"/>
</svg>
