<svg width="1920" height="1080" viewBox="0 0 1920 1080" fill="none" xmlns="http://www.w3.org/2000/svg">
<rect width="1920" height="1080" fill="black"/>
<path d="M687.23 317.223C688.778 317.258 689.517 318.822 689.448 321.916C689.379 325.011 688.57 326.541 687.023 326.506C674.646 326.23 663.724 330.114 654.256 338.159C645.305 346.215 636.21 360.717 626.971 381.666L525.867 611.602C525.305 613.654 522.446 614.622 517.289 614.507C512.131 614.392 509.318 613.297 508.848 611.222L425.627 421.29L342.527 607.511C341.965 609.563 339.106 610.531 333.948 610.416C328.791 610.301 325.978 609.206 325.508 607.131L222.419 371.091C212.599 348.685 204.16 333.791 197.101 326.41C190.557 319.04 182.128 315.24 171.814 315.01C170.267 314.976 169.528 313.411 169.597 310.317C169.666 307.222 170.474 305.692 172.021 305.727C182.336 305.957 190.324 306.393 195.985 307.036L225.364 308.465L271.797 308.727C279.544 308.384 290.638 308.374 305.078 308.696C306.625 308.731 307.364 310.295 307.295 313.389C307.226 316.484 306.418 318.014 304.871 317.979C290.431 317.657 279.308 318.957 271.503 321.878C263.71 324.284 259.738 328.84 259.589 335.544C259.508 339.154 260.453 343.045 262.424 347.217L352.366 548.135L416.759 402.517L404.985 375.165C395.166 352.759 386.984 337.871 380.441 330.501C373.898 323.131 365.727 319.337 355.928 319.118C354.896 319.095 354.415 317.537 354.484 314.442C354.553 311.348 355.103 309.812 356.135 309.835C366.449 310.065 374.18 310.496 379.325 311.127L407.931 312.539L458.231 312.887C465.463 312.533 475.267 312.494 487.645 312.77C489.192 312.804 489.931 314.369 489.862 317.463C489.793 320.557 488.985 322.087 487.438 322.053C458.041 321.397 443.205 327.258 442.929 339.635C442.848 343.245 443.793 347.136 445.764 351.308L534.898 553.756L611.585 377.453C615.368 369.798 617.34 362.36 617.501 355.14C617.731 344.825 612.998 337.238 603.303 332.378C593.619 327.002 578.205 324.078 557.061 323.606C556.029 323.583 555.548 322.025 555.617 318.93C555.686 315.836 556.236 314.3 557.268 314.323C571.192 314.634 581.759 315.128 588.968 315.805L635.366 317.614L663.232 317.462C668.401 317.061 676.4 316.982 687.23 317.223ZM1216.81 329.04C1218.35 329.074 1219.09 330.639 1219.02 333.733C1218.95 336.828 1218.15 338.357 1216.6 338.323C1204.22 338.047 1193.3 341.931 1183.83 349.975C1174.88 358.031 1165.78 372.534 1156.55 393.483L1055.44 623.419C1054.88 625.47 1052.02 626.438 1046.86 626.323C1041.71 626.208 1038.89 625.114 1038.42 623.039L955.203 433.107L872.102 619.328C871.54 621.379 868.681 622.347 863.524 622.232C858.366 622.117 855.553 621.023 855.083 618.948L751.994 382.908C742.174 360.502 733.735 345.608 726.676 338.227C720.132 330.857 711.704 327.057 701.389 326.827C699.842 326.792 699.103 325.228 699.172 322.133C699.241 319.039 700.049 317.509 701.596 317.544C711.911 317.774 719.899 318.21 725.56 318.852L754.939 320.282L801.372 320.544C809.119 320.201 820.213 320.191 834.653 320.513C836.2 320.547 836.939 322.112 836.87 325.206C836.801 328.3 835.993 329.83 834.446 329.796C820.006 329.474 808.883 330.773 801.078 333.695C793.285 336.101 789.313 340.656 789.164 347.361C789.083 350.971 790.028 354.862 791.999 359.034L881.941 559.951L946.334 414.334L934.56 386.982C924.741 364.575 916.559 349.687 910.016 342.318C903.473 334.948 895.302 331.154 885.503 330.935C884.471 330.912 883.99 329.353 884.059 326.259C884.128 323.165 884.679 321.629 885.71 321.652C896.024 321.882 903.755 322.313 908.9 322.943L937.506 324.356L987.806 324.704C995.038 324.349 1004.84 324.31 1017.22 324.586C1018.77 324.621 1019.51 326.185 1019.44 329.28C1019.37 332.374 1018.56 333.904 1017.01 333.869C987.616 333.214 972.78 339.074 972.504 351.452C972.423 355.062 973.369 358.953 975.339 363.125L1064.47 565.572L1141.16 389.27C1144.94 381.614 1146.91 374.177 1147.08 366.957C1147.31 356.642 1142.57 349.055 1132.88 344.195C1123.19 338.819 1107.78 335.895 1086.64 335.423C1085.6 335.4 1085.12 333.841 1085.19 330.747C1085.26 327.653 1085.81 326.117 1086.84 326.14C1100.77 326.451 1111.33 326.944 1118.54 327.621L1164.94 329.431L1192.81 329.278C1197.98 328.878 1205.98 328.798 1216.81 329.04ZM1746.38 340.857C1747.93 340.891 1748.67 342.456 1748.6 345.55C1748.53 348.644 1747.72 350.174 1746.17 350.14C1733.8 349.864 1722.87 353.748 1713.41 361.792C1704.46 369.848 1695.36 384.351 1686.12 405.3L1585.02 635.236C1584.46 637.287 1581.6 638.255 1576.44 638.14C1571.28 638.025 1568.47 636.93 1568 634.856L1484.78 444.923L1401.68 631.145C1401.12 633.196 1398.26 634.164 1393.1 634.049C1387.94 633.934 1385.13 632.839 1384.66 630.765L1281.57 394.725C1271.75 372.318 1263.31 357.425 1256.25 350.043C1249.71 342.674 1241.28 338.874 1230.96 338.644C1229.42 338.609 1228.68 337.045 1228.75 333.95C1228.82 330.856 1229.62 329.326 1231.17 329.36C1241.49 329.591 1249.47 330.027 1255.14 330.669L1284.51 332.099L1330.95 332.361C1338.69 332.018 1349.79 332.007 1364.23 332.329C1365.78 332.364 1366.51 333.928 1366.45 337.023C1366.38 340.117 1365.57 341.647 1364.02 341.613C1349.58 341.29 1338.46 342.59 1330.65 345.512C1322.86 347.918 1318.89 352.473 1318.74 359.177C1318.66 362.788 1319.6 366.678 1321.57 370.85L1411.52 571.768L1475.91 426.15L1464.14 398.798C1454.32 376.392 1446.13 361.504 1439.59 354.134C1433.05 346.765 1424.88 342.97 1415.08 342.752C1414.05 342.729 1413.57 341.17 1413.63 338.076C1413.7 334.981 1414.25 333.446 1415.29 333.469C1425.6 333.699 1433.33 334.129 1438.48 334.76L1467.08 336.172L1517.38 336.521C1524.61 336.166 1534.42 336.127 1546.79 336.403C1548.34 336.438 1549.08 338.002 1549.01 341.096C1548.94 344.191 1548.14 345.721 1546.59 345.686C1517.19 345.03 1502.36 350.891 1502.08 363.268C1502 366.878 1502.94 370.769 1504.91 374.941L1594.05 577.389L1670.74 401.087C1674.52 393.431 1676.49 385.993 1676.65 378.773C1676.88 368.459 1672.15 360.871 1662.45 356.011C1652.77 350.635 1637.36 347.712 1616.21 347.24C1615.18 347.217 1614.7 345.658 1614.77 342.564C1614.84 339.469 1615.39 337.934 1616.42 337.957C1630.34 338.267 1640.91 338.761 1648.12 339.438L1694.52 341.247L1722.38 341.095C1727.55 340.694 1735.55 340.615 1746.38 340.857Z" fill="#FFFEFD"/>
</svg>
