<svg width="1920" height="1080" viewBox="0 0 1920 1080" fill="none" xmlns="http://www.w3.org/2000/svg">
<rect width="1920" height="1080" fill="white"/>
<path d="M962.671 769.341C964.53 768.843 965.833 769.988 966.58 772.776C967.327 775.565 966.771 777.208 964.912 777.706C956.082 780.072 942.248 783.281 923.409 787.333C904.571 791.384 890.969 794.531 882.603 796.772C872.379 799.512 859.491 803.463 843.939 808.627C829.316 813.541 818.054 817.057 810.154 819.174C808.295 819.672 806.992 818.527 806.245 815.738C805.497 812.95 806.053 811.306 807.912 810.808C825.108 806.201 837.22 801.212 844.249 795.842C851.278 790.472 853.734 783.836 851.617 775.936C849.873 769.429 844.175 760.247 834.522 748.388L737.176 633.259L571.264 677.715L554.991 792.655C552.718 810.2 552.89 823.852 555.505 833.611C559.365 848.018 567.806 857.213 580.828 861.195C594.19 864.588 612.257 863.234 635.029 857.132C637.353 856.51 638.888 857.593 639.635 860.381C640.382 863.169 639.594 864.875 637.271 865.498C628.905 867.739 616.697 870.512 600.647 873.816C582.738 877.619 567.277 881.264 554.264 884.75C542.181 887.988 528.363 892.189 512.811 897.352C499.118 902.017 487.624 905.595 478.329 908.086C476.006 908.708 474.47 907.625 473.723 904.837C472.976 902.049 473.764 900.343 476.088 899.72C489.101 896.234 499.399 890.984 506.984 883.97C514.909 876.367 521.203 865.466 525.866 851.266C530.869 836.476 535.137 816.156 538.671 790.304L592.739 403.73C593.295 402.087 594.735 400.954 597.059 400.331C599.382 399.709 600.963 400.032 601.802 401.302L859.154 703.683C884.171 733.84 903.874 753.466 918.266 762.56C932.533 771.19 947.334 773.45 962.671 769.341ZM573.105 662.278L727.166 620.998L599.467 470.666L573.105 662.278ZM1447 181.555C1448.4 181.182 1449.47 182.389 1450.21 185.178C1450.96 187.966 1450.64 189.547 1449.24 189.921C1433.91 194.03 1421.55 201.824 1412.17 213.302C1402.8 224.781 1396.6 241.633 1393.59 263.858L1344.67 675.204C1344.7 677.188 1342.39 678.802 1337.75 680.047C1334.03 681.044 1331.22 680.799 1329.33 679.314L1185.84 506.314L1159.93 724.704C1159.97 726.687 1157.66 728.301 1153.01 729.547C1149.29 730.543 1146.49 730.298 1144.6 728.813L869.962 398.187C856.616 381.839 844.826 371.3 834.593 366.57C824.235 361.376 811.853 360.709 797.446 364.569C796.052 364.943 794.981 363.736 794.234 360.947C793.487 358.159 793.81 356.578 795.204 356.204L821.881 349.803C835.143 347.246 845.724 344.909 853.625 342.792C870.356 338.309 888.356 332.988 907.626 326.828L936.021 318.473C937.415 318.099 938.486 319.306 939.233 322.095C939.98 324.883 939.656 326.464 938.262 326.838C924.32 330.574 914.299 335.002 908.2 340.123C902.565 345.12 900.806 351.568 902.923 359.469C904.791 366.44 909.356 374.183 916.619 382.697L1150.47 661.49L1171.55 489.223L1054.7 348.688C1042.06 333.145 1030.57 322.776 1020.21 317.581C1009.73 311.922 997.749 310.898 984.271 314.51C982.877 314.883 981.806 313.676 981.059 310.887C980.312 308.099 980.636 306.518 982.03 306.144L1008.01 299.93C1021.27 297.373 1031.39 295.16 1038.36 293.292C1051.84 289.681 1065.42 285.543 1079.12 280.878L1098.45 274.95C1099.84 274.577 1100.91 275.784 1101.66 278.573C1102.41 281.361 1102.08 282.942 1100.69 283.316C1091.86 285.682 1085.77 288.06 1082.43 290.45C1079.55 292.716 1078.67 295.941 1079.79 300.123C1081.41 306.165 1088.83 317.127 1102.05 333.011L1182.08 428.124L1195.38 313.234C1196.75 297.922 1196.51 286.781 1194.64 279.81C1192.77 272.838 1189.08 268.349 1183.56 266.341C1178.04 264.333 1170.17 264.699 1159.94 267.439C1158.55 267.812 1157.48 266.605 1156.73 263.816C1155.98 261.028 1156.31 259.447 1157.7 259.073L1173.92 255.474C1183.47 253.913 1193.35 251.763 1203.57 249.023C1212.87 246.533 1223.43 243.204 1235.27 239.037L1263.66 230.681C1264.59 230.432 1265.43 231.702 1266.18 234.49C1266.92 237.279 1266.83 238.797 1265.9 239.046C1250.1 243.28 1237.75 251.074 1228.83 262.428C1219.8 273.318 1214.07 290.045 1211.65 312.61L1196.18 444.518L1335.9 611.804L1377 266.063C1378.1 255.307 1377.78 246.676 1376.04 240.17C1373.42 230.41 1367.31 224.328 1357.7 221.922C1348.09 219.516 1334.22 220.741 1316.1 225.598C1314.7 225.971 1313.63 224.764 1312.88 221.975C1312.14 219.187 1312.46 217.606 1313.85 217.232L1343.32 210.084C1358.44 207.029 1372.51 203.758 1385.52 200.271C1395.28 197.656 1406.08 194.265 1417.91 190.098L1447 181.555Z" fill="#1A1A18"/>
</svg>
