<svg width="1920" height="1080" viewBox="0 0 1920 1080" fill="none" xmlns="http://www.w3.org/2000/svg">
<rect width="1920" height="1080" fill="white"/>
<path d="M793.295 831.427C742.173 845.125 694.819 846.856 651.231 836.618C608.108 826.256 571.884 806.325 542.561 776.824C513.238 747.323 492.972 711.66 481.765 669.833C469.686 624.753 470.55 582.432 484.356 542.869C498.038 502.841 522.202 468.472 556.848 439.762C591.959 410.928 634.146 389.911 683.408 376.711C708.04 370.112 731.899 366.209 754.987 365.004C778.075 363.798 798.006 365.68 814.779 370.65C818.995 371.513 821.522 372.579 822.36 373.849C823.199 375.118 824.597 378.48 826.557 383.932L856.963 463.949C857.337 465.344 856.191 466.647 853.528 467.859C851.328 468.946 849.747 468.622 848.785 466.888C806.984 396.399 748.44 371.241 673.152 391.414C636.438 401.252 605.45 418.521 580.19 443.221C555.27 467.332 538.321 497.028 529.345 532.308C520.708 566.999 521.807 604.561 532.641 644.994C543.225 684.496 561.321 719.496 586.926 749.993C612.531 780.491 644.526 802.302 682.911 815.428C721.171 828.089 763.306 828.256 809.315 815.927C842.311 807.086 863.867 794.586 873.983 778.427C883.973 761.803 884.797 737.922 876.454 706.784C869.978 682.618 863.869 666.323 858.125 657.9C852.721 648.887 844.239 644.187 832.679 643.798C821.583 643.284 803.022 646.514 776.997 653.487C774.208 654.235 772.316 652.749 771.32 649.031C770.946 647.637 770.867 646.413 771.083 645.359C771.639 643.716 772.381 642.77 773.311 642.52C810.183 635.131 839.773 628.448 862.081 622.47C883.459 616.742 906.277 609.881 930.534 601.887C931.464 601.638 932.348 602.148 933.186 603.418C934.364 604.098 935.078 604.903 935.327 605.833C936.199 609.086 935.473 611.024 933.149 611.646C921.406 614.295 913.709 618.101 910.058 623.064C906.747 627.438 905.826 635.156 907.296 646.219C908.642 656.817 912.926 675.593 920.148 702.548C925.752 723.461 930.434 738.146 934.194 746.603C938.419 754.934 940.843 760.262 941.465 762.586C942.213 765.374 942.246 767.358 941.566 768.536C940.885 769.715 939.043 771.205 936.039 773.006C881.773 800.995 834.192 820.469 793.295 831.427ZM1505.35 622.701C1506.74 622.328 1507.81 623.535 1508.56 626.324C1509.31 629.112 1508.98 630.693 1507.59 631.067C1493.18 634.927 1481.73 637.746 1473.24 639.522L1424.96 651.714L1373.56 666.233C1365.78 668.815 1354.92 671.974 1340.98 675.71C1339.59 676.083 1338.52 674.876 1337.77 672.087C1337.02 669.299 1337.34 667.718 1338.74 667.344C1356.86 662.488 1369.8 657.777 1377.54 653.212C1385.28 648.647 1389.68 642.737 1390.72 635.484C1392.11 627.641 1390.93 616.748 1387.2 602.806L1343.49 439.682L1075.8 511.41L1119.51 674.534C1123.24 688.476 1127.44 698.559 1132.09 704.783C1137.09 710.417 1144.08 713.276 1153.07 713.358C1162.06 713.44 1175.62 711.053 1193.74 706.197C1194.67 705.948 1195.51 707.217 1196.26 710.006C1197 712.794 1196.91 714.313 1195.98 714.562C1181.57 718.422 1170.13 721.241 1161.64 723.018L1111.26 735.769L1063.34 749.355C1055.1 752.061 1043.55 755.407 1028.68 759.392C1027.75 759.641 1026.91 758.371 1026.16 755.582C1025.41 752.794 1025.5 751.275 1026.43 751.026C1044.09 746.294 1056.8 741.646 1064.54 737.08C1072.75 732.391 1077.37 726.419 1078.42 719.166C1079.8 711.323 1078.63 700.43 1074.89 686.488L988.407 363.726C984.671 349.784 980.305 339.996 975.308 334.361C970.777 328.602 964.017 325.681 955.029 325.599C945.916 325.052 932.53 327.144 914.87 331.876C913.94 332.125 913.102 330.856 912.355 328.067C911.608 325.279 911.699 323.76 912.628 323.511L948.368 314.682C968.136 310.381 983.829 306.674 995.448 303.561C1008.93 299.95 1025.76 294.94 1045.96 288.531L1079.24 278.868C1080.17 278.619 1081.01 279.889 1081.75 282.677C1082.5 285.466 1082.41 286.984 1081.48 287.233C1063.82 291.965 1050.95 296.909 1042.86 302.063C1035.25 307.093 1030.74 313.529 1029.36 321.372C1028.31 328.626 1029.66 339.224 1033.4 353.166L1071.87 496.77L1339.56 425.043L1301.09 281.438C1297.35 267.496 1292.98 257.708 1287.99 252.073C1283.33 245.849 1276.45 242.464 1267.33 241.917C1258.22 241.37 1244.6 243.525 1226.48 248.381C1225.08 248.755 1224.01 247.547 1223.27 244.759C1222.52 241.97 1222.84 240.389 1224.24 240.016L1257.19 231.934C1277.89 227.384 1295.21 223.241 1309.15 219.505C1321.7 216.143 1337.6 211.382 1356.87 205.223L1390.85 195.373C1392.24 194.999 1393.31 196.207 1394.06 198.995C1394.81 201.784 1394.48 203.365 1393.09 203.738C1375.43 208.47 1362.79 213.351 1355.17 218.381C1347.43 222.946 1342.8 228.918 1341.29 236.296C1340.25 243.55 1341.59 254.147 1345.33 268.09L1431.81 590.852C1435.55 604.794 1439.74 614.877 1444.4 621.101C1449.4 626.735 1456.39 629.594 1465.38 629.676C1474.36 629.758 1487.69 627.433 1505.35 622.701Z" fill="#1A1A18"/>
</svg>
