<svg width="1920" height="1080" viewBox="0 0 1920 1080" fill="none" xmlns="http://www.w3.org/2000/svg">
<rect width="1920" height="1080" fill="white"/>
<path d="M759.346 357.14C788.625 349.295 813.816 344.786 834.921 343.614C856.025 342.442 877.939 344.291 900.663 349.16C904.414 350.148 906.709 351.276 907.547 352.546C908.386 353.816 910.017 357.114 912.44 362.442L943.034 443.157C943.407 444.551 942.262 445.854 939.598 447.066C937.275 447.689 935.694 447.365 934.855 446.095C892.681 374.212 834.415 348.232 760.057 368.157C721.018 378.617 688.931 396.43 663.796 421.595C638.66 446.76 622.255 477.555 614.581 513.981C606.783 549.941 608.55 589.067 619.882 631.359C630.716 671.791 649.508 706.604 676.259 735.798C703.35 764.403 734.614 784.418 770.052 795.843C805.955 807.143 841.799 807.999 877.584 798.41C915.693 788.199 944.108 770.623 962.828 745.683C981.549 720.743 992.078 687.537 994.414 646.066C994.165 645.136 995.203 644.36 997.526 643.738C1000.78 642.866 1002.59 643.127 1002.97 644.522L1016.54 723.072C1017.57 728.773 1017.81 732.445 1017.25 734.089C1016.7 735.732 1015.27 737.857 1012.98 740.463C991.93 758.557 971.337 772.791 951.204 783.167C931.536 793.418 907.992 802.217 880.573 809.564C831.775 822.64 785.537 824.818 741.858 816.099C698.519 806.791 661.491 787.574 630.773 758.446C600.056 729.319 578.657 692.216 566.578 647.136C554.873 603.45 555.458 561.951 568.335 522.636C581.088 482.858 604.028 448.568 637.155 419.767C670.748 390.842 711.478 369.966 759.346 357.14ZM1187.5 654.101C1191.49 668.973 1196.27 679.396 1201.86 685.371C1207.78 690.757 1216.7 693.349 1228.6 693.149C1240.96 692.824 1259.46 689.362 1284.09 682.762C1285.49 682.389 1286.56 683.596 1287.31 686.384C1288.05 689.173 1287.73 690.754 1286.34 691.127C1267.28 696.233 1252.35 699.986 1241.53 702.385L1180.7 717.939L1134.18 731.151C1125.47 733.981 1113.68 737.389 1098.81 741.374C1097.88 741.623 1097.04 740.353 1096.3 737.565C1095.55 734.776 1095.64 733.258 1096.57 733.009C1114.23 728.277 1126.7 723.69 1133.98 719.25C1141.72 714.684 1146.11 708.775 1147.16 701.522C1148.08 693.803 1146.67 682.973 1142.94 669.031L1056.45 346.269C1052.72 332.327 1048.58 322.476 1044.05 316.717C1039.52 310.958 1032.76 308.037 1023.77 307.955C1015.12 307.283 1001.97 309.313 984.31 314.045C983.381 314.295 982.542 313.025 981.795 310.236C981.048 307.448 981.139 305.929 982.069 305.68L1017.11 297.038C1036.88 292.737 1052.57 289.03 1064.19 285.917C1075.81 282.804 1088.64 278.62 1102.67 273.365C1108.25 271.871 1117.01 269.273 1128.97 265.57C1140.81 261.403 1151.14 258.137 1159.97 255.771C1202.72 244.314 1239.44 244.689 1270.1 256.894C1301.23 268.975 1322.03 294.534 1332.49 333.572C1340.71 364.245 1339.95 392.093 1330.22 417.116C1320.95 442.014 1305.84 462.751 1284.87 479.326C1264.38 495.776 1241.58 507.364 1216.48 514.088C1202.54 517.824 1190.84 519.713 1181.39 519.755C1180 520.129 1178.99 519.154 1178.37 516.83C1177.99 515.436 1177.85 513.98 1177.94 512.461C1178.5 510.818 1179.3 510.104 1180.36 510.319C1188.29 510.186 1196.9 508.874 1206.2 506.383C1236.87 498.165 1259.99 481.262 1275.55 455.674C1291.57 429.962 1294.54 398.284 1284.45 360.64C1274.61 323.926 1256.9 297.789 1231.31 282.23C1205.6 266.207 1177.18 262.367 1146.04 270.71C1129.31 275.193 1117.47 279.36 1110.54 283.212C1103.6 287.063 1099.44 292.91 1098.05 300.753C1096.54 308.131 1097.9 319.721 1102.14 335.522L1187.5 654.101Z" fill="#1A1A18"/>
</svg>
