<svg width="1920" height="1080" viewBox="0 0 1920 1080" fill="none" xmlns="http://www.w3.org/2000/svg">
<rect width="1920" height="1080" fill="white"/>
<path d="M755.604 835.464C742.126 839.075 726.371 842.549 708.337 845.887C701.706 847.166 693.216 848.943 682.868 851.217C672.983 853.368 662 856.062 649.917 859.299L602.7 872.698C594.459 875.404 582.903 878.75 568.031 882.735C567.102 882.984 566.263 881.714 565.516 878.926C564.769 876.137 564.86 874.619 565.79 874.37C583.45 869.638 595.919 865.051 603.197 860.611C610.939 856.045 615.333 850.136 616.378 842.882C617.764 835.04 616.588 824.147 612.853 810.205L526.369 487.443C522.633 473.501 518.499 463.65 513.967 457.891C509.436 452.132 502.676 449.211 493.688 449.129C485.04 448.457 471.886 450.488 454.226 455.22C453.296 455.469 452.458 454.199 451.711 451.41C450.964 448.622 451.055 447.103 451.984 446.854L487.027 438.212C506.795 433.911 522.488 430.204 534.107 427.091C551.767 422.359 569.008 416.992 585.83 410.991C606.029 404.582 620.079 400.319 627.98 398.202C676.313 385.251 721.559 383.09 763.72 391.717C806.345 400.22 842.178 417.766 871.219 444.353C900.259 470.941 920.134 504.219 930.844 544.187C942.923 589.266 942.943 632.098 930.905 672.682C919.206 712.676 897.785 747.057 866.641 775.825C835.372 804.128 798.36 824.007 755.604 835.464ZM745.831 826.875C783.01 816.913 813.952 800.403 838.656 777.346C863.236 753.824 879.38 724.842 887.087 690.4C895.134 655.369 893.429 616.475 881.973 573.719C871.139 533.287 853.633 498.627 829.455 469.74C805.278 440.853 776.461 420.68 743.006 409.222C709.552 397.764 674.235 397.016 637.056 406.978C617.072 412.332 601.814 417.666 591.283 422.978C581.217 428.166 574.561 434.93 571.317 443.271C568.073 451.612 568.319 462.754 572.055 476.696L656.11 790.395C659.846 804.338 664.631 814.761 670.466 821.665C676.766 828.445 685.82 832.494 697.63 833.813C709.78 834.542 725.847 832.229 745.831 826.875ZM1499.5 624.182C1500.43 623.933 1501.27 625.202 1502.02 627.991C1502.77 630.779 1502.67 632.298 1501.74 632.547L1411.82 656.643C1400.2 659.756 1373.19 646.322 1330.79 616.341C1288.38 586.36 1236.08 543.591 1173.87 488.034C1162.07 494.184 1149.43 499.065 1135.95 502.676C1133.17 503.424 1122.52 505.528 1104.02 508.991L1146.43 667.235C1150.29 681.642 1154.48 691.725 1159.01 697.484C1163.55 703.243 1170.07 706.226 1178.6 706.433C1187.58 706.515 1200.91 704.19 1218.57 699.458C1219.96 699.085 1221.03 700.292 1221.78 703.08C1222.53 705.869 1222.2 707.45 1220.81 707.823C1206.4 711.684 1194.95 714.502 1186.46 716.279L1138.18 728.47L1090.96 741.869C1082.72 744.576 1070.93 747.983 1055.59 752.093C1054.66 752.342 1053.83 751.072 1053.08 748.284C1052.33 745.495 1052.42 743.976 1053.35 743.727C1071.01 738.995 1083.71 734.347 1091.46 729.782C1099.2 725.216 1103.59 719.307 1104.64 712.054C1106.02 704.211 1104.85 693.318 1101.11 679.376L1014.63 356.614C1010.89 342.672 1006.76 332.821 1002.23 327.062C997.696 321.303 990.936 318.382 981.948 318.3C973.3 317.628 960.146 319.659 942.486 324.391C941.092 324.764 940.021 323.557 939.274 320.768C938.527 317.98 938.851 316.399 940.245 316.025L974.59 307.57C994.358 303.269 1010.28 299.5 1022.37 296.262C1032.59 293.523 1042.06 290.737 1050.76 287.907C1059.47 285.076 1066.78 282.619 1072.7 280.535C1089.52 274.533 1104.9 269.665 1118.84 265.929C1155.56 256.091 1186.15 256.861 1210.61 268.237C1235.08 279.612 1251.05 299.243 1258.52 327.127C1265.25 352.223 1263.91 376.988 1254.52 401.421C1245.47 425.265 1230.41 446.234 1209.36 464.328C1263.47 510.102 1308.06 545.473 1343.14 570.442C1378.57 594.822 1408.37 611.243 1432.55 619.706C1457.2 628.044 1479.52 629.536 1499.5 624.182ZM1099.54 492.26C1111.66 491.006 1125.62 488.262 1141.42 484.028C1177.67 474.315 1201.34 459.503 1212.45 439.592C1224.01 419.557 1225.38 393.042 1216.53 360.045C1206.82 323.795 1191.72 299.949 1171.22 288.506C1151.18 276.939 1125.83 275.265 1095.15 283.484C1077.03 288.34 1065.35 294.956 1060.12 303.33C1054.9 311.704 1054.96 325.883 1060.31 345.867L1099.54 492.26Z" fill="#1A1A18"/>
</svg>
