<svg width="1920" height="1080" viewBox="0 0 1920 1080" fill="none" xmlns="http://www.w3.org/2000/svg">
<rect width="1920" height="1080" fill="white"/>
<path d="M492.005 449.823C462.726 457.669 442.643 471.019 431.756 489.876C421.334 508.608 417.664 536.738 420.747 574.266C420.996 575.196 419.726 576.034 416.937 576.781C414.614 577.404 413.327 577.251 413.078 576.321C410.454 559.092 406.693 536.689 401.794 509.112C396.895 481.534 392.64 461.007 389.029 447.529C388.406 445.205 389.257 443.732 391.58 443.11C394.369 442.363 396.074 443.151 396.697 445.475C399.437 455.699 413.354 457.449 438.45 450.724C478.327 441.534 525.22 429.716 579.13 415.271C606.55 407.924 635.471 399.676 665.895 390.528L713.112 377.129C729.842 372.646 741.847 368.184 749.125 363.744C756.867 359.178 760.967 353.099 761.422 345.505C761.389 343.522 762.534 342.219 764.858 341.596C767.182 340.973 768.592 341.591 769.091 343.45C771.308 357.301 775.393 378.124 781.345 405.917C787.298 433.71 792.579 456.204 797.186 473.4C797.435 474.329 796.165 475.168 793.377 475.915C790.588 476.662 789.07 476.571 788.821 475.641C777.713 439.765 763.491 416.429 746.153 405.634C728.691 394.373 704.391 392.915 673.253 401.258C652.34 406.862 637.717 411.776 629.385 416.001C621.053 420.226 616.07 425.795 614.436 432.708C612.802 439.622 613.915 450.282 617.775 464.689L703.885 786.056C707.745 800.463 712.174 810.484 717.17 816.119C722.167 821.754 729.624 824.488 739.541 824.321C749.459 824.154 764.409 821.393 784.393 816.038C785.787 815.665 786.858 816.872 787.605 819.661C788.352 822.449 788.029 824.03 786.635 824.404C771.298 828.513 758.92 831.581 749.501 833.607L694.94 847.479L642.843 862.185C633.673 865.141 620.955 868.798 604.689 873.156C603.76 873.405 602.921 872.135 602.174 869.347C601.427 866.558 601.518 865.04 602.448 864.791C622.431 859.436 636.759 854.352 645.432 849.537C654.104 844.723 659.195 838.627 660.704 831.249C662.554 823.282 661.612 812.327 657.876 798.385L571.392 475.623C567.532 461.216 563.228 451.66 558.48 446.954C553.608 441.785 546.57 439.685 537.367 440.657C528.039 441.164 512.918 444.22 492.005 449.823ZM1449.81 179.731C1451.2 179.358 1452.27 180.565 1453.02 183.354C1453.77 186.142 1453.45 187.723 1452.05 188.097C1436.72 192.206 1424.36 200 1414.98 211.478C1405.6 222.957 1399.41 239.809 1396.4 262.034L1347.47 673.38C1347.51 675.364 1345.2 676.978 1340.55 678.223C1336.84 679.219 1334.03 678.975 1332.14 677.489L1188.65 504.49L1162.74 722.879C1162.77 724.863 1160.47 726.477 1155.82 727.723C1152.1 728.719 1149.3 728.474 1147.4 726.989L872.77 396.363C859.424 380.015 847.634 369.476 837.401 364.746C827.043 359.552 814.661 358.885 800.254 362.745C798.859 363.119 797.789 361.911 797.042 359.123C796.294 356.335 796.618 354.754 798.012 354.38L824.689 347.979C837.951 345.422 848.532 343.085 856.433 340.968C873.163 336.485 891.164 331.163 910.434 325.004L938.828 316.648C940.223 316.275 941.293 317.482 942.04 320.271C942.788 323.059 942.464 324.64 941.07 325.014C927.128 328.749 917.107 333.178 911.007 338.299C905.373 343.296 903.614 349.744 905.731 357.645C907.599 364.616 912.164 372.359 919.426 380.873L1153.27 659.666L1174.36 487.399L1057.5 346.864C1044.87 331.32 1033.38 320.952 1023.02 315.757C1012.54 310.098 1000.56 309.074 987.079 312.686C985.685 313.059 984.614 311.852 983.867 309.063C983.12 306.275 983.443 304.694 984.838 304.32L1010.82 298.106C1024.08 295.549 1034.2 293.336 1041.17 291.468C1054.64 287.857 1068.23 283.719 1081.92 279.054L1101.26 273.126C1102.65 272.753 1103.72 273.96 1104.47 276.749C1105.21 279.537 1104.89 281.118 1103.5 281.492C1094.67 283.858 1088.58 286.236 1085.23 288.626C1082.36 290.892 1081.48 294.116 1082.6 298.299C1084.22 304.341 1091.64 315.303 1104.86 331.187L1184.89 426.3L1198.18 311.41C1199.56 296.098 1199.31 284.957 1197.45 277.985C1195.58 271.014 1191.89 266.525 1186.37 264.517C1180.85 262.509 1172.98 262.875 1162.75 265.614C1161.36 265.988 1160.29 264.781 1159.54 261.992C1158.79 259.204 1159.12 257.623 1160.51 257.249L1176.73 253.65C1186.27 252.089 1196.16 249.939 1206.38 247.199C1215.68 244.709 1226.24 241.38 1238.08 237.213L1266.47 228.857C1267.4 228.608 1268.24 229.878 1268.99 232.666C1269.73 235.455 1269.64 236.973 1268.71 237.222C1252.91 241.456 1240.55 249.25 1231.64 260.604C1222.6 271.493 1216.88 288.221 1214.45 310.786L1198.99 442.694L1338.71 609.98L1379.81 264.239C1380.91 253.483 1380.59 244.852 1378.85 238.346C1376.23 228.586 1370.12 222.503 1360.51 220.098C1350.9 217.692 1337.03 218.917 1318.9 223.773C1317.51 224.147 1316.44 222.94 1315.69 220.151C1314.94 217.363 1315.27 215.782 1316.66 215.408L1346.13 208.26C1361.25 205.205 1375.31 201.934 1388.33 198.447C1398.09 195.832 1408.88 192.441 1420.72 188.274L1449.81 179.731Z" fill="#1A1A18"/>
</svg>
