<svg width="1920" height="1080" viewBox="0 0 1920 1080" fill="none" xmlns="http://www.w3.org/2000/svg">
<rect width="1920" height="1080" fill="white"/>
<path d="M830.721 749.462C834.332 762.939 838.341 772.325 842.748 777.62C847.156 782.914 853.389 785.727 861.447 786.058C869.381 785.925 881.713 783.617 898.444 779.134L974.429 758.774C1000.92 751.676 1019.89 737.877 1031.33 717.377C1042.77 696.877 1047.19 671.535 1044.58 641.352C1044.21 639.957 1045.24 639.181 1047.69 639.024C1050.48 638.276 1052.06 638.6 1052.43 639.994C1058.59 679.688 1065.03 712.083 1071.75 737.179C1072.75 740.897 1072.8 743.872 1071.9 746.105C1070.88 747.873 1068.28 749.317 1064.1 750.438L742.031 836.735C741.102 836.984 740.263 835.714 739.516 832.926C738.769 830.137 738.86 828.619 739.79 828.37C757.45 823.638 769.919 819.051 777.197 814.611C784.939 810.045 789.333 804.136 790.378 796.882C791.299 789.164 789.891 778.334 786.156 764.392L699.672 441.63C695.936 427.688 691.802 417.837 687.27 412.078C682.738 406.318 675.979 403.398 666.991 403.316C658.343 402.644 645.189 404.674 627.529 409.406C626.599 409.655 625.761 408.386 625.014 405.597C624.267 402.809 624.358 401.29 625.287 401.041L659.633 392.585C679.401 388.285 695.326 384.516 707.41 381.278C720.422 377.791 736.564 372.968 755.834 366.808L789.108 357.145C790.502 356.772 791.573 357.979 792.32 360.768C793.067 363.556 792.744 365.137 791.35 365.511C774.154 370.118 761.748 374.937 754.129 379.967C746.851 384.407 742.52 390.549 741.135 398.392C740.089 405.646 741.435 416.243 745.171 430.186L830.721 749.462ZM1212.93 650.038C1216.66 663.981 1220.86 674.064 1225.52 680.288C1230.05 686.047 1236.58 689.03 1245.1 689.236C1254.09 689.319 1267.41 686.994 1285.07 682.262C1286.47 681.888 1287.54 683.096 1288.28 685.884C1289.03 688.672 1288.71 690.253 1287.31 690.627C1273.37 694.363 1262.15 697.119 1253.66 698.896L1203.98 711.461L1156.07 725.047C1147.83 727.753 1136.5 731.036 1122.1 734.896C1120.7 735.27 1119.63 734.062 1118.89 731.274C1118.14 728.486 1118.46 726.905 1119.86 726.531C1137.52 721.799 1149.99 717.213 1157.26 712.772C1165.01 708.207 1169.4 702.297 1170.45 695.044C1171.83 687.201 1170.66 676.309 1166.92 662.366L1080.44 339.604C1076.7 325.662 1072.33 315.874 1067.34 310.239C1062.81 304.48 1056.05 301.559 1047.06 301.477C1038.41 300.806 1025.26 302.836 1007.6 307.568C1006.2 307.941 1005.13 306.734 1004.38 303.946C1003.64 301.157 1003.96 299.576 1005.35 299.203L1039.7 290.747C1059.47 286.446 1075.63 282.615 1088.17 279.253C1102.12 275.517 1118.72 270.569 1137.99 264.41L1170.57 254.933C1171.96 254.56 1173.03 255.767 1173.78 258.556C1174.53 261.344 1174.2 262.925 1172.81 263.299C1155.62 267.906 1143.21 272.725 1135.59 277.755C1128.44 282.66 1124.17 289.034 1122.78 296.877C1121.74 304.13 1123.08 314.728 1126.82 328.671L1212.93 650.038Z" fill="#1A1A18"/>
</svg>
