<svg width="1920" height="1080" viewBox="0 0 1920 1080" fill="none" xmlns="http://www.w3.org/2000/svg">
<rect width="1920" height="1080" fill="white"/>
<path d="M404.557 920.581C386.872 919.165 372.019 917.02 360 914.227L364.249 824.061C374.852 826.166 388.653 828.148 405.609 829.889C422.566 831.669 436.366 832.56 446.969 832.56C488.693 832.56 518.722 818.234 537.136 789.621C555.509 760.969 564.695 718.395 564.695 661.818L562.551 157H657.978L660.082 696.825C660.77 765.421 642.761 820.217 605.974 861.212C569.188 902.208 518.641 922.726 454.335 922.726C438.794 922.726 422.161 921.998 404.476 920.622L404.557 920.581ZM766.194 600.304H1115.12V685.129H766.194V600.304ZM954.944 157H1067.37L1560.53 905.729H1449.16L954.944 157Z" fill="#1A1A18"/>
</svg>
